<svg id="Layer_1" data-name="Layer 1" xmlns="http://www.w3.org/2000/svg" xmlns:xlink="http://www.w3.org/1999/xlink" viewBox="0 0 384.06 85.7"><defs><style>.cls-1{fill:none;}.cls-2{clip-path:url(#clip-path);}</style><clipPath id="clip-path" transform="translate(0 0)"><rect class="cls-1" width="384.06" height="85.7"/></clipPath></defs><g class="cls-2"><path d="M43.08,0a42.85,42.85,0,1,0,43.1,42.85A43,43,0,0,0,43.08,0m27.1,63.18c-3.91-12.64-8.9-20.33-14.58-20.33C51,42.85,46.67,48,43.11,56.91c-3.56-8.86-7.86-14.06-12.54-14.06C24.94,42.85,20,50.52,16,63.18h-2.9L30.28,10.69,43.09,49.9,55.9,10.69,73,63.18Z" transform="translate(0 0)"/><polygon points="360.82 23.79 361.58 26.33 364.71 25.36 364.71 40.75 367.66 40.75 367.66 22.13 365.71 22.13 360.82 23.79"/><path d="M378.8,29.92l5-5.52V22.25H371.61V25h7.93l-5,5.61.6,1.79h1.49c2.12,0,4.4.75,4.4,2.92a3,3,0,0,1-3.33,2.9A5.8,5.8,0,0,1,373,35.83l-.34-.4-2.16,1.93.29.37a8.4,8.4,0,0,0,6.92,3.32c3.62,0,6.35-2.48,6.35-5.82,0-2.82-1.95-4.75-5.26-5.31" transform="translate(0 0)"/><path d="M232.74,47.21V30.76H243v-8H232.74V12.37h-8V47.21A16.65,16.65,0,0,0,241.4,63.84h1.69v-8H241.4a8.68,8.68,0,0,1-8.66-8.66" transform="translate(0 0)"/><path d="M165.71,25.91a16.65,16.65,0,0,0-23.47,1.85A16.6,16.6,0,0,0,113,38.55V63.84h8V38.31a8.66,8.66,0,0,1,17.32.24V63.84h8V38.55a8.66,8.66,0,1,1,17.31,0V63.84h8V38.55a16.67,16.67,0,0,0-5.84-12.64" transform="translate(0 0)"/><path d="M198.22,22a21.27,21.27,0,1,0,21.21,21.27A21.3,21.3,0,0,0,198.22,22m0,34.58a13.31,13.31,0,1,1,13.31-13.31,13.3,13.3,0,0,1-13.31,13.31" transform="translate(0 0)"/><path d="M267,22h0a21.28,21.28,0,1,0,21.28,21.27A21.27,21.27,0,0,0,267,22m0,34.58a13.31,13.31,0,1,1,13.3-13.31A13.31,13.31,0,0,1,267,56.62" transform="translate(0 0)"/><path d="M328.93,22c-11,0-19.22,9.38-19.22,21.13v.16c0,12.63,9.21,21.13,19.86,21.13,7.78,0,12.62-3.18,16.76-7.63l-2.71-2.38c-3.33,3.57-7.62,6.35-13.9,6.35-7.94,0-15.17-5.87-15.88-16h33.6a10.13,10.13,0,0,0,.08-1.59c0-12-7.23-21.21-18.59-21.21m-15.09,19.3c.71-9,6.91-15.72,14.93-15.72,9.29,0,14,7.54,14.54,15.72Z" transform="translate(0 0)"/></g></svg>